<svg xmlns="http://www.w3.org/2000/svg" version="1.1" xmlns:xlink="http://www.w3.org/1999/xlink" xmlns:svgjs="http://svgjs.dev/svgjs" width="128" height="128" viewBox="0 0 128 128"><g transform="matrix(0.8046875,0,0,0.8046875,12.506335372881367,12.506335372881367)"><svg viewBox="0 0 59 59" data-background-color="#111111" preserveAspectRatio="xMidYMid meet" height="128" width="128" xmlns="http://www.w3.org/2000/svg" xmlns:xlink="http://www.w3.org/1999/xlink"><g id="tight-bounds" transform="matrix(1,0,0,1,-0.003629000000003657,-0.003629000000003657)"><svg viewBox="0 0 59.007258 59.007258" height="59.007258" width="59.007258"><g><svg viewBox="0 0 59.007258 59.007258" height="59.007258" width="59.007258"><g><svg viewBox="0 0 59.007258 59.007258" height="59.007258" width="59.007258"><g><svg viewBox="0 0 59.007258 59.007258" height="59.007258" width="59.007258"><g id="textblocktransform"><svg viewBox="0 0 59.007258 59.007258" height="59.007258" width="59.007258" id="textblock"><g><svg viewBox="0 0 59.007258 59.007258" height="59.007258" width="59.007258"><g><svg viewBox="0 0 59.007258 59.007258" height="59.007258" width="59.007258"><g><svg xmlns="http://www.w3.org/2000/svg" xmlns:xlink="http://www.w3.org/1999/xlink" version="1.1" x="0" y="0" viewBox="6.276465862310009 6.27646586231001 87.44706827537999 87.44706827537999" style="enable-background:new 0 0 100 100;" xml:space="preserve" height="59.007258" width="59.007258" class="icon-icon-0" data-fill-palette-color="accent" id="icon-0"><path d="M57.4 6.9c6.4 3.5 10.9 11.4 10.9 20.6C68.2 39.9 60.1 50 50 50c7.7 0 14-7.7 14-17.3 0-8.1-4.5-14.9-10.6-16.8-2-0.6-3.4-2.6-3.4-4.7v0C50 7.4 54.1 5.1 57.4 6.9zM30.6 16.4L30.6 16.4c1.1 1.9 3.2 2.8 5.3 2.4 6.2-1.4 13.5 2.2 17.6 9.2 4.8 8.3 3.2 18.1-3.5 22 8.7-5 10.8-17.8 4.5-28.6C49.9 13.3 41.9 8.7 34.5 9 30.9 9.2 28.8 13.3 30.6 16.4zM16.4 30.6L16.4 30.6c1.9 1.1 4.2 0.8 5.8-0.6 4.7-4.3 12.8-4.8 19.8-0.8C50.3 34 53.9 43.3 50 50c5-8.7 0.4-20.8-10.4-27-8-4.6-17-4.7-23.3-0.9C13.1 24 13.1 28.7 16.4 30.6zM11.2 50L11.2 50c2.1 0 4.1-1.4 4.7-3.4C17.8 40.5 24.6 36 32.7 36 42.3 36 50 42.3 50 50c0-10.1-10.1-18.2-22.5-18.2-9.2 0-17.1 4.5-20.6 10.9C5.1 45.9 7.4 50 11.2 50zM16.4 69.4L16.4 69.4c1.9-1.1 2.8-3.2 2.4-5.3C17.4 57.9 21 50.6 28 46.5c8.3-4.8 18.1-3.2 22 3.5-5-8.7-17.8-10.8-28.6-4.5C13.3 50.1 8.7 58.1 9 65.5 9.2 69.1 13.3 71.2 16.4 69.4zM30.6 83.6L30.6 83.6c1.1-1.9 0.8-4.2-0.6-5.8C25.7 73.1 25.2 65 29.2 58 34 49.7 43.3 46.1 50 50c-8.7-5-20.8-0.4-27 10.4-4.6 8-4.7 17-0.9 23.3C24 86.9 28.7 86.9 30.6 83.6zM50 88.8L50 88.8c0-2.1-1.4-4.1-3.4-4.7C40.5 82.2 36 75.4 36 67.3 36 57.7 42.3 50 50 50c-10.1 0-18.2 10.1-18.2 22.5 0 9.2 4.5 17.1 10.9 20.6C45.9 94.9 50 92.6 50 88.8zM69.4 83.6L69.4 83.6c-1.1-1.9-3.2-2.8-5.3-2.4C57.9 82.6 50.6 79 46.5 72c-4.8-8.3-3.2-18.1 3.5-22-8.7 5-10.8 17.8-4.5 28.6 4.7 8.1 12.6 12.7 20 12.4C69.1 90.8 71.2 86.7 69.4 83.6zM83.6 69.4L83.6 69.4c-1.9-1.1-4.2-0.8-5.8 0.6C73.1 74.3 65 74.8 58 70.8 49.7 66 46.1 56.7 50 50c-5 8.7-0.4 20.8 10.4 27 8 4.6 17 4.7 23.3 0.9C86.9 76 86.9 71.3 83.6 69.4zM88.8 50L88.8 50c-2.1 0-4.1 1.4-4.7 3.4C82.2 59.5 75.4 64 67.3 64 57.7 64 50 57.7 50 50c0 10.1 10.1 18.2 22.5 18.2 9.2 0 17.1-4.5 20.6-10.9C94.9 54.1 92.6 50 88.8 50zM83.6 30.6L83.6 30.6c-1.9 1.1-2.8 3.2-2.4 5.3 1.4 6.2-2.2 13.5-9.2 17.6-8.3 4.8-18.1 3.2-22-3.5 5 8.7 17.8 10.8 28.6 4.5 8.1-4.7 12.7-12.6 12.4-20C90.8 30.9 86.7 28.8 83.6 30.6zM69.4 16.4L69.4 16.4c-1.1 1.9-0.8 4.2 0.6 5.8 4.3 4.7 4.8 12.8 0.8 19.8C66 50.3 56.7 53.9 50 50c8.7 5 20.8 0.4 27-10.4 4.6-8 4.7-17 0.9-23.3C76 13.1 71.3 13.1 69.4 16.4z" fill="#fc1503" data-fill-palette-color="accent"></path></svg></g></svg></g></svg></g></svg></g></svg></g></svg></g></svg></g><defs></defs></svg><rect width="59.007258" height="59.007258" fill="none" stroke="none" visibility="hidden"></rect></g></svg></g></svg>