<!DOCTYPE svg PUBLIC "-//W3C//DTD SVG 1.1//EN" "http://www.w3.org/Graphics/SVG/1.1/DTD/svg11.dtd">
<!-- Uploaded to: SVG Repo, www.svgrepo.com, Transformed by: SVG Repo Mixer Tools -->
<svg fill="#ffffff" width="100px" height="100px" viewBox="0 0 24.00 24.00" xmlns="http://www.w3.org/2000/svg" id="home-alt-3" class="icon glyph" stroke="#ffffff" stroke-width="0.00024000000000000003">
<g id="SVGRepo_bgCarrier" stroke-width="0"/>
<g id="SVGRepo_tracerCarrier" stroke-linecap="round" stroke-linejoin="round" stroke="#CCCCCC" stroke-width="0.24000000000000005"/>
<g id="SVGRepo_iconCarrier">
<path d="M21.71,10.29l-9-9a1,1,0,0,0-1.42,0l-9,9a1,1,0,0,0-.21,1.09A1,1,0,0,0,3,12H4v9a1,1,0,0,0,1,1H8a1,1,0,0,0,1-1V15a1,1,0,0,1,1-1h4a1,1,0,0,1,1,1v6a1,1,0,0,0,1,1h3a1,1,0,0,0,1-1V12h1a1,1,0,0,0,.92-.62A1,1,0,0,0,21.71,10.29Z"/>
</g>
</svg>