<svg xmlns="http://www.w3.org/2000/svg" version="1.1" xmlns:xlink="http://www.w3.org/1999/xlink" xmlns:svgjs="http://svgjs.dev/svgjs" width="2000" height="388" viewBox="0 0 2000 388"><g transform="matrix(1,0,0,1,-1.212062180589328,-0.8628268826121257)"><svg viewBox="0 0 396 77" data-background-color="#111111" preserveAspectRatio="xMidYMid meet" height="388" width="2000" xmlns="http://www.w3.org/2000/svg" xmlns:xlink="http://www.w3.org/1999/xlink"><g id="tight-bounds" transform="matrix(1,0,0,1,0.2399883117566901,0.1712311081472535)"><svg viewBox="0 0 395.52 76.65753608498343" height="76.65753608498343" width="395.52"><g><svg viewBox="0 0 395.52 76.65753608498343" height="76.65753608498343" width="395.52"><g><svg viewBox="0 0 505.20979855912464 97.91701649356115" height="76.65753608498343" width="395.52"><g transform="matrix(1,0,0,1,109.68979855912465,24.024203053615018)"><svg viewBox="0 0 395.52 49.86861038633111" height="49.86861038633111" width="395.52"><g id="textblocktransform"><svg viewBox="0 0 395.52 49.86861038633111" height="49.86861038633111" width="395.52" id="textblock"><g><svg viewBox="0 0 395.52 49.86861038633111" height="49.86861038633111" width="395.52"><g transform="matrix(1,0,0,1,0,0)"><svg width="395.52" viewBox="1.4200000762939453 -36.060001373291016 290.03997802734375 36.56999969482422" height="49.86861038633111" data-palette-color="#ffffff"><path d="M18.24 0.51L18.24 0.51Q13.01 0.51 9.24-1.68 5.47-3.88 3.44-7.87 1.42-11.87 1.42-17.24L1.42-17.24 1.42-18.29Q1.42-23.46 3.39-27.47 5.37-31.47 9.06-33.76 12.74-36.06 17.85-36.06L17.85-36.06Q21.44-36.06 24.54-35.02 27.64-33.98 30-31.98L30-31.98 30-23.58 25-23.58 24.32-29.03Q23.51-29.61 22.55-30.03 21.58-30.44 20.45-30.66 19.31-30.88 17.99-30.88L17.99-30.88Q14.87-30.88 12.65-29.33 10.42-27.78 9.24-24.98 8.06-22.17 8.06-18.33L8.06-18.33 8.06-17.24Q8.06-13.35 9.3-10.52 10.55-7.69 12.85-6.16 15.16-4.64 18.36-4.64L18.36-4.64Q19.95-4.64 21.51-4.99 23.07-5.35 24.29-5.93L24.29-5.93 25-10.94 29.96-10.94 29.96-2.61Q27.91-1.27 24.88-0.38 21.85 0.51 18.24 0.51ZM60.08 0L33.57 0 33.57-4 37.4-4.74 37.4-30.79 33.57-31.52 33.57-35.55 37.4-35.55 44.04-35.55 48.26-35.55 48.26-31.52 44.04-30.79 44.04-5.08 54.61-5.08 55-10.38 60.08-10.38 60.08 0ZM77.22 0L62.91 0 62.91-4 66.74-4.74 66.74-30.79 62.91-31.52 62.91-35.55 77.22-35.55 77.22-31.52 73.38-30.79 73.38-4.74 77.22-4 77.22 0ZM94.5 0L80.19 0 80.19-4 84.03-4.74 84.03-30.79 80.19-31.52 80.19-35.55 84.03-35.55 96.99-35.55Q101.02-35.55 103.91-34.14 106.8-32.74 108.37-30.21 109.93-27.69 109.93-24.34L109.93-24.34Q109.93-20.97 108.37-18.47 106.8-15.97 103.91-14.58 101.02-13.18 96.99-13.18L96.99-13.18 90.67-13.18 90.67-4.74 94.5-4 94.5 0ZM90.67-30.42L90.67-18.31 96.99-18.31Q100.11-18.31 101.7-20 103.29-21.68 103.29-24.29L103.29-24.29Q103.29-26.93 101.7-28.67 100.11-30.42 96.99-30.42L96.99-30.42 90.67-30.42ZM126.55 0.51L126.55 0.51Q122.77 0.51 119.58-0.38 116.4-1.27 113.37-3.39L113.37-3.39 113.37-11.79 118.5-11.79 119.28-6.62Q120.47-5.69 122.39-5.13 124.31-4.57 126.55-4.57L126.55-4.57Q128.6-4.57 130.01-5.14 131.41-5.71 132.14-6.77 132.88-7.84 132.88-9.25L132.88-9.25Q132.88-10.62 132.22-11.66 131.56-12.7 130.06-13.54 128.55-14.38 125.99-15.14L125.99-15.14Q121.89-16.28 119.16-17.75 116.42-19.21 115.07-21.28 113.71-23.34 113.71-26.2L113.71-26.2Q113.71-29.05 115.29-31.26 116.86-33.47 119.66-34.74 122.45-36.01 126.09-36.04L126.09-36.04Q130.14-36.08 133.24-35.03 136.34-33.98 138.54-32.2L138.54-32.2 138.54-24.39 133.53-24.39 132.63-29.3Q131.66-29.96 130.07-30.42 128.48-30.88 126.41-30.88L126.41-30.88Q124.62-30.88 123.26-30.33 121.89-29.79 121.11-28.74 120.33-27.69 120.33-26.22L120.33-26.22Q120.33-24.95 121.01-24 121.69-23.05 123.31-22.24 124.92-21.44 127.68-20.58L127.68-20.58Q133.51-18.99 136.53-16.3 139.54-13.6 139.54-9.3L139.54-9.3Q139.54-6.32 137.92-4.11 136.29-1.9 133.38-0.7 130.46 0.51 126.55 0.51ZM157.82-12.6L144.45-12.6 144.45-17.72 157.82-17.72 157.82-12.6ZM179.16 0.51L179.16 0.51Q173.94 0.51 170.16-1.68 166.39-3.88 164.36-7.87 162.34-11.87 162.34-17.24L162.34-17.24 162.34-18.29Q162.34-23.46 164.32-27.47 166.29-31.47 169.98-33.76 173.67-36.06 178.77-36.06L178.77-36.06Q182.36-36.06 185.46-35.02 188.56-33.98 190.93-31.98L190.93-31.98 190.93-23.58 185.92-23.58 185.24-29.03Q184.43-29.61 183.47-30.03 182.5-30.44 181.37-30.66 180.23-30.88 178.92-30.88L178.92-30.88Q175.79-30.88 173.57-29.33 171.35-27.78 170.16-24.98 168.98-22.17 168.98-18.33L168.98-18.33 168.98-17.24Q168.98-13.35 170.22-10.52 171.47-7.69 173.78-6.16 176.08-4.64 179.28-4.64L179.28-4.64Q180.87-4.64 182.43-4.99 183.99-5.35 185.21-5.93L185.21-5.93 185.92-10.94 190.88-10.94 190.88-2.61Q188.83-1.27 185.8-0.38 182.77 0.51 179.16 0.51ZM205.84 0L194.15 0 194.15-4 196.71-4.37 208.26-35.55 214.88-35.55 226.33-4.37 228.86-4 228.86 0 217.17 0 217.17-4 219.68-4.47 217.95-9.69 205.09-9.69 203.35-4.47 205.84-4 205.84 0ZM211.09-27.29L206.72-14.7 216.32-14.7 211.95-27.34 211.6-28.37 211.46-28.37 211.09-27.29ZM247 0L240.36 0 228.81-31.13 225.74-31.52 225.74-35.55 239.26-35.55 239.26-31.52 236.04-31.01 243.22-9.69 243.83-7.57 243.97-7.57 244.58-9.64 251.81-31.03 248.1-31.52 248.1-35.55 261.11-35.55 261.11-31.52 257.96-31.13 247 0ZM291.46 0L263.55 0 263.55-4 267.38-4.74 267.38-30.79 263.55-31.52 263.55-35.55 290.87-35.55 290.87-26.17 285.74-26.17 285.38-30.44 274.03-30.44 274.03-20.95 286.28-20.95 286.28-15.8 274.03-15.8 274.03-5.08 286.01-5.08 286.38-9.45 291.46-9.45 291.46 0Z" opacity="1" transform="matrix(1,0,0,1,0,0)" fill="#ffffff" class="wordmark-text-0" data-fill-palette-color="primary" id="text-0"></path></svg></g></svg></g></svg></g></svg></g><g><svg viewBox="0 0 97.91701649356115 97.91701649356115" height="97.91701649356115" width="97.91701649356115"><g><svg xmlns="http://www.w3.org/2000/svg" xmlns:xlink="http://www.w3.org/1999/xlink" version="1.1" x="0" y="0" viewBox="6.27646541595459 6.276464939117432 87.44706726074219 87.44706726074219" style="enable-background:new 0 0 100 100;" xml:space="preserve" height="97.91701649356115" width="97.91701649356115" class="icon-icon-0" data-fill-palette-color="accent" id="icon-0"><path d="M57.4 6.9c6.4 3.5 10.9 11.4 10.9 20.6C68.2 39.9 60.1 50 50 50c7.7 0 14-7.7 14-17.3 0-8.1-4.5-14.9-10.6-16.8-2-0.6-3.4-2.6-3.4-4.7v0C50 7.4 54.1 5.1 57.4 6.9zM30.6 16.4L30.6 16.4c1.1 1.9 3.2 2.8 5.3 2.4 6.2-1.4 13.5 2.2 17.6 9.2 4.8 8.3 3.2 18.1-3.5 22 8.7-5 10.8-17.8 4.5-28.6C49.9 13.3 41.9 8.7 34.5 9 30.9 9.2 28.8 13.3 30.6 16.4zM16.4 30.6L16.4 30.6c1.9 1.1 4.2 0.8 5.8-0.6 4.7-4.3 12.8-4.8 19.8-0.8C50.3 34 53.9 43.3 50 50c5-8.7 0.4-20.8-10.4-27-8-4.6-17-4.7-23.3-0.9C13.1 24 13.1 28.7 16.4 30.6zM11.2 50L11.2 50c2.1 0 4.1-1.4 4.7-3.4C17.8 40.5 24.6 36 32.7 36 42.3 36 50 42.3 50 50c0-10.1-10.1-18.2-22.5-18.2-9.2 0-17.1 4.5-20.6 10.9C5.1 45.9 7.4 50 11.2 50zM16.4 69.4L16.4 69.4c1.9-1.1 2.8-3.2 2.4-5.3C17.4 57.9 21 50.6 28 46.5c8.3-4.8 18.1-3.2 22 3.5-5-8.7-17.8-10.8-28.6-4.5C13.3 50.1 8.7 58.1 9 65.5 9.2 69.1 13.3 71.2 16.4 69.4zM30.6 83.6L30.6 83.6c1.1-1.9 0.8-4.2-0.6-5.8C25.7 73.1 25.2 65 29.2 58 34 49.7 43.3 46.1 50 50c-8.7-5-20.8-0.4-27 10.4-4.6 8-4.7 17-0.9 23.3C24 86.9 28.7 86.9 30.6 83.6zM50 88.8L50 88.8c0-2.1-1.4-4.1-3.4-4.7C40.5 82.2 36 75.4 36 67.3 36 57.7 42.3 50 50 50c-10.1 0-18.2 10.1-18.2 22.5 0 9.2 4.5 17.1 10.9 20.6C45.9 94.9 50 92.6 50 88.8zM69.4 83.6L69.4 83.6c-1.1-1.9-3.2-2.8-5.3-2.4C57.9 82.6 50.6 79 46.5 72c-4.8-8.3-3.2-18.1 3.5-22-8.7 5-10.8 17.8-4.5 28.6 4.7 8.1 12.6 12.7 20 12.4C69.1 90.8 71.2 86.7 69.4 83.6zM83.6 69.4L83.6 69.4c-1.9-1.1-4.2-0.8-5.8 0.6C73.1 74.3 65 74.8 58 70.8 49.7 66 46.1 56.7 50 50c-5 8.7-0.4 20.8 10.4 27 8 4.6 17 4.7 23.3 0.9C86.9 76 86.9 71.3 83.6 69.4zM88.8 50L88.8 50c-2.1 0-4.1 1.4-4.7 3.4C82.2 59.5 75.4 64 67.3 64 57.7 64 50 57.7 50 50c0 10.1 10.1 18.2 22.5 18.2 9.2 0 17.1-4.5 20.6-10.9C94.9 54.1 92.6 50 88.8 50zM83.6 30.6L83.6 30.6c-1.9 1.1-2.8 3.2-2.4 5.3 1.4 6.2-2.2 13.5-9.2 17.6-8.3 4.8-18.1 3.2-22-3.5 5 8.7 17.8 10.8 28.6 4.5 8.1-4.7 12.7-12.6 12.4-20C90.8 30.9 86.7 28.8 83.6 30.6zM69.4 16.4L69.4 16.4c-1.1 1.9-0.8 4.2 0.6 5.8 4.3 4.7 4.8 12.8 0.8 19.8C66 50.3 56.7 53.9 50 50c8.7 5 20.8 0.4 27-10.4 4.6-8 4.7-17 0.9-23.3C76 13.1 71.3 13.1 69.4 16.4z" fill="#fc1503" data-fill-palette-color="accent"></path></svg></g></svg></g></svg></g></svg></g><defs></defs></svg><rect width="395.52" height="76.65753608498343" fill="none" stroke="none" visibility="hidden"></rect></g></svg></g></svg>